<?xml version="1.0" encoding="UTF-8"?>
<svg version="1.1" xmlns="http://www.w3.org/2000/svg" width="512" height="512">
<path d="M0 0 C3.84622162 2.52369328 7.74037373 4.97069208 11.63427734 7.41992188 C12.81437378 8.16326782 12.81437378 8.16326782 14.01831055 8.92163086 C15.62060733 9.93091954 17.22306588 10.93995145 18.82568359 11.94873047 C21.29512206 13.50501182 23.76195992 15.06533625 26.22802734 16.62695312 C35.20108472 22.30773127 44.19438914 27.94909694 53.25927734 33.48242188 C53.24356689 32.89340088 53.22785645 32.30437988 53.21166992 31.69750977 C53.14858534 28.9800816 53.11005743 26.26280826 53.07177734 23.54492188 C53.03407227 22.15563477 53.03407227 22.15563477 52.99560547 20.73828125 C52.92183747 13.73032111 53.4425389 6.94531636 58.01318359 1.32617188 C58.61001953 0.88273437 59.20685547 0.43929688 59.82177734 -0.01757812 C60.42119141 -0.48164063 61.02060547 -0.94570313 61.63818359 -1.42382812 C64.45985411 -3.32760582 66.22859918 -3.65268161 69.59790039 -3.69458008 C70.94521492 -3.71383293 70.94521492 -3.71383293 72.31974792 -3.73347473 C73.29365982 -3.74086166 74.26757172 -3.7482486 75.27099609 -3.75585938 C76.77337578 -3.767967 76.77337578 -3.767967 78.30610657 -3.78031921 C80.43037176 -3.7941678 82.55465928 -3.80488648 84.67895508 -3.81274414 C87.91645015 -3.82991726 91.15291361 -3.87379227 94.39013672 -3.91796875 C96.45458234 -3.92809914 98.51903664 -3.93661416 100.58349609 -3.94335938 C101.54728683 -3.96086746 102.51107758 -3.97837555 103.5040741 -3.99641418 C109.63879113 -3.9767773 113.25859923 -3.14226095 118.25927734 0.48242188 C122.71774165 6.11416626 123.41047415 9.96723425 123.19482422 17.00415039 C123.15875251 18.3431236 123.12351302 19.68211941 123.08898926 21.02113342 C123.06008354 22.08108363 123.06008354 22.08108363 123.03059387 23.16244698 C122.92162615 27.72061507 122.89176736 32.28010441 122.85175323 36.83931065 C122.81230444 40.83516496 122.74236334 44.8258201 122.60449219 48.81958008 C121.31852566 65.51765844 121.31852566 65.51765844 125.84991455 80.94992065 C129.72473413 84.7503563 134.15949852 86.85671534 139.21325684 88.70315552 C141.86709262 89.71392004 144.07742671 91.15000738 146.40771484 92.75976562 C147.81597323 93.64743027 149.22481431 94.53417125 150.63427734 95.41992188 C151.79745483 96.1532373 151.79745483 96.1532373 152.98413086 96.90136719 C156.23985504 98.95375371 159.49720577 101.00353747 162.75585938 103.05126953 C167.56230121 106.07179296 172.36378978 109.09976264 177.15429688 112.14550781 C178.49212115 112.99518605 179.83147119 113.84247036 181.17285156 114.68652344 C197.01795452 124.67877319 197.01795452 124.67877319 199.25927734 134.48242188 C200.26036999 143.51425777 199.70957419 151.00890877 194.25927734 158.48242188 C189.47105757 163.95633331 183.85639432 166.92331305 176.65771484 167.79882812 C167.59948881 168.19432814 160.99972782 165.36452077 153.59179688 160.39111328 C152.78066437 159.84742096 151.96953186 159.30372864 151.13381958 158.74356079 C150.51522064 158.32738495 149.8966217 157.91120911 149.25927734 157.48242188 C149.25781213 158.34118085 149.25781213 158.34118085 149.25631732 159.21728849 C149.1980362 193.1540686 149.12423255 227.09077682 149.03029106 261.02747676 C149.019023 265.10295295 149.00788453 269.17842948 148.99682617 273.25390625 C148.99462249 274.06525498 148.9924188 274.87660372 148.99014834 275.71253878 C148.95478289 288.84710605 148.92991451 301.98167326 148.90893032 315.11627048 C148.88716228 328.59513512 148.85410232 342.073938 148.81057578 355.55275011 C148.78407635 363.86886236 148.7663684 372.18489768 148.7599313 380.50105006 C148.75467219 386.20494761 148.73843765 391.90874839 148.71361168 397.61259407 C148.69961451 400.90267562 148.69204693 404.19254996 148.69426918 407.48266602 C148.69591955 411.05338472 148.67924159 414.6235685 148.65800476 418.19421387 C148.66527612 419.74676667 148.66527612 419.74676667 148.67269439 421.33068419 C148.60217566 428.51497956 147.42008414 433.85226647 143.69677734 440.10742188 C138.1240401 445.53726842 131.65159371 449.26810087 123.80224609 449.58007812 C122.63628906 449.56267578 122.63628906 449.56267578 121.44677734 449.54492188 C120.65658203 449.53589844 119.86638672 449.526875 119.05224609 449.51757812 C118.16472656 449.50017578 118.16472656 449.50017578 117.25927734 449.48242188 C117.35466797 450.08828125 117.45005859 450.69414062 117.54833984 451.31835938 C118.8968493 461.51058205 117.27695716 470.02720087 111.25927734 478.48242188 C105.78644699 485.08028802 99.73198345 489.69312048 91.25927734 491.48242188 C89.56028271 491.57399661 87.85811744 491.6132438 86.15666008 491.61664295 C85.12029439 491.6211008 84.0839287 491.62555864 83.01615798 491.63015157 C81.8790189 491.62996721 80.74187982 491.62978284 79.57028198 491.6295929 C77.75651634 491.63510793 77.75651634 491.63510793 75.90610898 491.64073437 C72.54817141 491.64985391 69.19028268 491.6544693 65.83233738 491.65712368 C62.21117965 491.66103017 58.59003604 491.67060828 54.96888733 491.67933655 C46.22293693 491.69909133 37.47698538 491.70916596 28.73101825 491.71806434 C24.61104392 491.72244889 20.49107088 491.72781527 16.37109756 491.73305321 C2.6730342 491.75006457 -11.02502836 491.76455835 -24.72310066 491.77180195 C-28.27715175 491.7737118 -31.83120284 491.77563214 -35.38525391 491.77758789 C-36.26858138 491.77807163 -37.15190886 491.77855537 -38.06200384 491.77905377 C-52.36869025 491.78735262 -66.67529301 491.81268749 -80.98194291 491.84516857 C-95.67454074 491.87825358 -110.36709609 491.89625202 -125.05973136 491.89944619 C-133.3073717 491.90160996 -141.55489005 491.91033912 -149.80249405 491.93590736 C-156.82709986 491.95763409 -163.85155406 491.96565512 -170.87618966 491.95594058 C-174.45824622 491.95140153 -178.03999007 491.95325859 -181.62200356 491.97270203 C-185.5114065 491.99363101 -189.40038081 491.9833301 -193.28982544 491.97016907 C-194.97545757 491.98662294 -194.97545757 491.98662294 -196.69514287 492.00340921 C-207.05757575 491.91888649 -215.11578929 489.05239448 -222.69384766 481.90429688 C-228.96824346 474.48039345 -231.89888523 466.29867951 -231.80322266 456.73242188 C-231.79419922 455.56195313 -231.78517578 454.39148438 -231.77587891 453.18554688 C-231.76427734 452.29351562 -231.75267578 451.40148437 -231.74072266 450.48242188 C-232.56314453 450.40765625 -233.38556641 450.33289063 -234.23291016 450.25585938 C-243.17407293 449.2027432 -250.63968188 447.31160663 -256.65478516 440.22851562 C-260.24434556 435.06533278 -261.85907269 431.04581279 -261.87938786 424.74230576 C-261.8848623 423.78685796 -261.89033674 422.83141017 -261.89597708 421.84700942 C-261.89695519 420.80032285 -261.89793329 419.75363628 -261.89894104 418.67523193 C-261.90634801 417.00401602 -261.90634801 417.00401602 -261.91390461 415.29903817 C-261.92930592 411.55255042 -261.9376474 407.80607984 -261.94604492 404.05957031 C-261.95562138 401.37920887 -261.96558789 398.69885153 -261.9760437 396.01849365 C-261.99780104 390.24107325 -262.01594825 384.46365054 -262.03164864 378.68621063 C-262.05435401 370.3329866 -262.08249592 361.97978785 -262.11196791 353.62658527 C-262.15963562 340.0743102 -262.20290204 326.52202479 -262.2434082 312.96972656 C-262.2827673 299.80435379 -262.32419453 286.63899021 -262.3684082 273.47363281 C-262.37113248 272.66222091 -262.37385675 271.85080901 -262.37666357 271.01480886 C-262.39034312 266.94422391 -262.40406338 262.87363909 -262.41780388 258.80305433 C-262.53175577 225.02952915 -262.63856798 191.25598479 -262.74072266 157.48242188 C-263.62115234 158.03671875 -264.50158203 158.59101563 -265.40869141 159.16210938 C-266.58173751 159.89409015 -267.75492195 160.62584927 -268.92822266 161.35742188 C-269.79543945 161.90462891 -269.79543945 161.90462891 -270.68017578 162.46289062 C-278.47942301 167.30988043 -284.59365215 168.49403037 -293.74072266 167.48242188 C-301.11093489 165.29072667 -306.49794229 160.84659243 -310.74072266 154.48242188 C-314.16480655 147.69189859 -313.97421744 138.7005335 -311.86572266 131.49023438 C-307.3481896 121.71215297 -298.5872112 116.92078585 -289.67822266 111.48242188 C-287.52667216 110.15381845 -285.37564176 108.82437243 -283.22509766 107.49414062 C-282.14164062 106.82560059 -281.05818359 106.15706055 -279.94189453 105.46826172 C-275.0780691 102.45099844 -270.25174996 99.37605806 -265.42822266 96.29492188 C-263.60931788 95.13460001 -261.79030885 93.97444155 -259.97119141 92.81445312 C-259.0951123 92.25580566 -258.2190332 91.6971582 -257.31640625 91.12158203 C-253.29804398 88.5643039 -249.26972328 86.02289421 -245.24072266 83.48242188 C-238.39657192 79.1659855 -231.56533968 74.82967444 -224.74072266 70.48242188 C-217.14614183 65.64470558 -209.54057182 60.82499116 -201.92431641 56.02148438 C-195.85336237 52.19039819 -189.79539637 48.33917691 -183.74072266 44.48242188 C-172.98786011 37.63364386 -162.21066904 30.82395834 -151.42724609 24.0234375 C-143.12247995 18.78531553 -134.82230032 13.54033106 -126.54101562 8.26513672 C-124.67777569 7.07896601 -122.81352046 5.89438859 -120.94824219 4.71142578 C-116.49438853 1.88513772 -112.05594425 -0.95949026 -107.65087891 -3.86132812 C-70.56298966 -28.12857564 -35.98598328 -23.82716677 0 0 Z " fill="#010100" transform="translate(312.74072265625,20.517578125)"/>
<path d="M0 0 C79.86 0 159.72 0 242 0 C246.62242608 24.2677369 246.62242608 24.2677369 248.33251953 34.98583984 C248.46096252 35.78834167 248.58940552 36.59084351 248.72174072 37.41766357 C248.85481628 38.24920959 248.98789185 39.08075562 249.125 39.9375 C249.4162215 41.74174482 249.7077364 43.54594231 249.99951172 45.35009766 C251.00372719 51.56608192 252.00190775 57.7830301 253 64 C254.38088982 72.59666319 255.76267939 81.19318042 257.14634514 89.78939724 C257.88632954 94.38782029 258.62344454 98.98669766 259.35986328 103.58569336 C261.57822256 117.40449007 263.86209388 131.20847624 266.29446411 144.99142456 C267.49806206 151.86404821 268.54903998 158.74359846 269.51559448 165.65338135 C270.22644423 170.56443819 271.07802632 175.44659138 271.9453125 180.33203125 C272.30371106 182.38731303 272.66177433 184.44265331 273.01953125 186.49804688 C273.5735353 189.66916606 274.129844 192.83981789 274.69189453 196.00952148 C275.24157581 199.1158654 275.78165808 202.22375887 276.3203125 205.33203125 C276.48902863 206.26972855 276.65774475 207.20742584 276.83157349 208.17353821 C278.27306321 216.56780993 279.46855283 224.36021613 275 232 C271.44281078 235.72537784 268.14214076 238.81577572 262.78353339 239.12995183 C261.91109573 239.13228248 261.03865807 239.13461312 260.13978291 239.13701439 C258.62817159 239.1446262 258.62817159 239.1446262 257.08602268 239.15239179 C255.42058981 239.15313843 255.42058981 239.15313843 253.72151184 239.15390015 C251.95591377 239.16047353 251.95591377 239.16047353 250.15464705 239.1671797 C246.88181101 239.17824901 243.60900195 239.18479361 240.33615148 239.18936086 C236.80840105 239.195317 233.28066823 239.2069268 229.75292969 239.21765137 C221.2305309 239.24217485 212.70812628 239.25680231 204.18570307 239.26971143 C201.778698 239.27342336 199.37169351 239.27739659 196.96468902 239.2814641 C182.01824534 239.30670028 167.07180074 239.32875388 152.12534046 239.34119225 C148.6632315 239.34412195 145.20112256 239.34708361 141.73901367 239.35009766 C140.87852099 239.35084371 140.01802831 239.35158976 139.13146009 239.35235842 C125.19192865 239.36501211 111.25252475 239.3982354 97.31305293 239.43989949 C83.00244143 239.48232234 68.69189522 239.50588767 54.381221 239.51111281 C46.34598238 239.5145265 38.3109431 239.52627664 30.27576637 239.55921555 C23.43258239 239.58722207 16.58963861 239.59821282 9.74640176 239.58702008 C6.25566351 239.58183489 2.76542823 239.58471004 -0.72523689 239.60948563 C-4.51277678 239.63210517 -8.29904792 239.62391341 -12.08659363 239.60800171 C-13.18572859 239.6218838 -14.28486356 239.63576588 -15.41730565 239.65006864 C-22.22148294 239.5795996 -26.73745703 238.43014721 -32 234 C-36.8034094 228.73174453 -36.43166646 222.89172937 -36.14809299 216.09155774 C-35.60642976 208.4414998 -34.09093942 200.86110806 -32.80297852 193.31030273 C-32.45887682 191.24608607 -32.11570161 189.18171479 -31.77337646 187.11720276 C-30.84687956 181.546013 -29.90740976 175.97708273 -28.96541333 170.40849566 C-27.98019667 164.57134316 -27.006766 158.73222537 -26.03196716 152.89332581 C-24.39533679 143.10015825 -22.751067 133.30829984 -21.10131836 123.51733398 C-18.77356728 109.70245869 -16.45978306 95.88527084 -14.14870942 82.06759727 C-12.35312167 71.33498048 -10.55385477 60.60297995 -8.75390625 49.87109375 C-8.5608582 48.7198825 -8.36781016 47.56867124 -8.16891217 46.3825748 C-7.06051678 39.77432027 -5.9502529 33.16638457 -4.8371582 26.55891991 C-4.5000082 24.55627209 -4.1633928 22.55353419 -3.82734489 20.55070114 C-3.36940648 17.82219382 -2.90947784 15.09402956 -2.44898987 12.36595154 C-2.31571952 11.56937132 -2.18244917 10.7727911 -2.04514033 9.95207208 C-1.47543327 6.58899899 -0.82802348 3.31209391 0 0 Z " fill="#01A8F3" transform="translate(135,256)"/>
<path d="M0 0 C2.81646258 1.79480709 5.58574652 3.6459455 8.34692383 5.5246582 C10.39893323 6.89260998 12.45233234 8.25847929 14.50708008 9.62231445 C15.51270996 10.29149902 16.51833984 10.96068359 17.55444336 11.65014648 C21.40967771 14.18140092 25.33199663 16.58658477 29.28442383 18.9621582 C38.73307903 24.66352339 48.00343947 30.63578484 57.28833008 36.59887695 C62.60605847 40.01369679 67.93864152 43.40395454 73.28442383 46.7746582 C74.04706543 47.25555908 74.80970703 47.73645996 75.59545898 48.23193359 C77.11158916 49.18748734 78.62786363 50.14281217 80.14428711 51.09790039 C91.85183423 58.47221656 103.54035232 65.8757847 115.21069336 73.30883789 C123.47655368 78.57170172 131.75939628 83.80734024 140.04760742 89.03491211 C144.16894613 91.63449954 148.28923286 94.23575219 152.40942383 96.8371582 C153.15023193 97.30460449 153.89104004 97.77205078 154.65429688 98.25366211 C156.07899286 99.15311944 157.49763158 100.06226974 158.90893936 100.98259169 C161.41722643 102.57929327 161.41722643 102.57929327 164.21354294 103.93459839 C171.78270312 107.99495176 171.78270312 107.99495176 173.42508698 112.00369942 C173.81398885 115.04790537 173.84805254 117.92574295 173.76586914 120.99391174 C173.77879564 122.14313754 173.79172215 123.29236333 173.80504036 124.47641414 C173.83485923 128.32572426 173.78609425 132.16998283 173.73754883 136.01904297 C173.73653871 138.77884258 173.75203999 141.5384937 173.76675415 144.29824829 C173.79252346 151.01424867 173.75972438 157.72874423 173.70706499 164.44453806 C173.64792378 172.26646408 173.64685145 180.08807585 173.64813972 187.91018593 C173.6484539 201.8668757 173.59603011 215.82287001 173.51391602 229.77929688 C173.43429541 243.3197696 173.39180804 256.85968008 173.39086914 270.40039062 C173.3908062 271.2345049 173.39074326 272.06861917 173.39067841 272.92800964 C173.3906205 273.76068703 173.39056259 274.59336442 173.39050293 275.45127445 C173.38921219 290.87085127 173.35507297 306.29019713 173.30443287 321.70968654 C173.28720573 327.16118728 173.27936294 332.61265651 173.27429199 338.06418037 C173.26739198 344.70762254 173.2413364 351.35068978 173.19157588 357.99395365 C173.16652071 361.38313461 173.14924349 364.77186029 173.15349197 368.16114235 C173.1537061 371.83547226 173.12323995 375.50828992 173.0847168 379.18238831 C173.09177769 380.25349289 173.09883858 381.32459747 173.10611343 382.42815977 C173.02813074 387.02385865 172.96738745 390.47944097 170.07546997 394.19692898 C166.69838556 397.14546687 165.01234612 397.16725955 160.59692383 396.8996582 C158.85475586 396.81844727 158.85475586 396.81844727 157.07739258 396.7355957 C156.19696289 396.66598633 155.3165332 396.59637695 154.40942383 396.5246582 C153.60296828 392.22904005 152.80395188 387.932112 152.01074219 383.6340332 C151.74209414 382.18349222 151.47168872 380.7332752 151.19921875 379.28344727 C149.5472522 370.48526416 148.12276667 361.69050948 146.96020508 352.8137207 C145.47093642 341.48077056 143.48182517 330.2634501 141.40942383 319.0246582 C139.18818773 306.97872396 137.13377085 294.95704662 135.54244995 282.81053162 C134.15626444 272.35436592 132.34387597 261.97689836 130.53442383 251.5871582 C129.82251489 247.47556942 129.11325071 243.36353022 128.40551758 239.2512207 C128.23250626 238.24705612 128.05949493 237.24289154 127.88124084 236.20829773 C126.83065734 230.07893784 125.82882436 223.94431974 124.88208008 217.7980957 C124.71292084 216.70799446 124.71292084 216.70799446 124.54034424 215.59587097 C124.02906202 212.29454022 123.52823089 208.99257427 123.04467773 205.68701172 C121.59962663 195.53888487 121.59962663 195.53888487 115.40942383 187.7121582 C110.95638988 184.46515428 107.73652577 184.3625754 102.33520508 184.20825195 C101.30945625 184.17708031 101.30945625 184.17708031 100.26298523 184.14527893 C98.08273173 184.07999666 95.90235978 184.02099803 93.72192383 183.9621582 C92.24209397 183.91895267 90.762276 183.87533773 89.2824707 183.83129883 C85.65824761 183.72433738 82.03389194 183.62300997 78.40942383 183.5246582 C78.41910187 182.66625336 78.42877991 181.80784851 78.43875122 180.9234314 C78.52161801 172.77468395 78.55550127 164.62744798 78.53639412 156.47827721 C78.52824707 152.28993141 78.53805893 148.1033369 78.59106445 143.9152832 C78.64166777 139.86199203 78.64228804 135.81131307 78.61037827 131.75786209 C78.60666956 130.22311324 78.62001623 128.6882112 78.65192032 127.15378952 C78.89404972 114.64586462 75.38413662 107.98981729 67.40942383 98.5246582 C65.98525057 96.59482003 64.57244086 94.65645794 63.17895508 92.7043457 C61.8619704 90.93460724 60.54299685 89.1663469 59.22192383 87.3996582 C58.23289062 86.04227539 58.23289062 86.04227539 57.22387695 84.6574707 C56.56967773 83.78606445 55.91547852 82.9146582 55.24145508 82.0168457 C54.38644409 80.86224854 54.38644409 80.86224854 53.51416016 79.68432617 C49.14456944 75.20069324 45.24737716 73.31558275 39.05908203 73.01672363 C36.94291944 72.99307252 34.82644101 72.99130089 32.71020508 73.00708008 C31.54999847 73.0000708 30.38979187 72.99306152 29.19442749 72.98583984 C25.37001413 72.96827507 21.54634435 72.97987817 17.72192383 72.9934082 C15.05825892 72.99071287 12.39461635 72.98683589 9.73095703 72.98181152 C4.15266913 72.97454734 -1.42540649 72.98409025 -7.00366211 73.00317383 C-13.44027183 73.02494049 -19.87637463 73.01788822 -26.31297207 72.99586821 C-31.85292346 72.97767887 -37.39272281 72.97517303 -42.93269444 72.98562288 C-46.23553202 72.99183857 -49.538081 72.99116168 -52.84091187 72.97947693 C-56.52474094 72.969304 -60.20760045 72.98482501 -63.89135742 73.00708008 C-64.9772818 72.99898315 -66.06320618 72.99088623 -67.18203735 72.98254395 C-74.47980179 73.06410681 -79.10199688 74.1334472 -84.47998047 79.36132812 C-84.95346924 79.98628174 -85.42695801 80.61123535 -85.91479492 81.25512695 C-86.46973633 81.97764648 -87.02467773 82.70016602 -87.59643555 83.44458008 C-88.15137695 84.19288086 -88.70631836 84.94118164 -89.27807617 85.7121582 C-89.81368164 86.41018555 -90.34928711 87.10821289 -90.90112305 87.82739258 C-92.10150575 89.40814913 -93.26665875 91.01596 -94.40551758 92.64160156 C-96.09721878 94.87370206 -97.71555483 96.68351301 -99.67797852 98.64404297 C-112.19919172 112.14323438 -110.19279602 129.37285623 -109.87811279 146.6048584 C-109.81504864 150.77529599 -109.8212564 154.94562462 -109.82104492 159.11645508 C-109.81071814 167.25393277 -109.7254519 175.38829443 -109.59057617 183.5246582 C-110.52853027 183.53400391 -111.46648437 183.54334961 -112.43286133 183.55297852 C-115.93343941 183.59715258 -119.4328192 183.65883488 -122.93286133 183.73217773 C-124.44381556 183.76029603 -125.95491438 183.78155591 -127.46606445 183.7956543 C-129.6463372 183.8172127 -131.82488837 183.86392136 -134.00463867 183.9152832 C-135.31384277 183.93623047 -136.62304688 183.95717773 -137.97192383 183.97875977 C-143.24961929 184.7749362 -146.13937666 187.07345869 -149.85112 190.78520203 C-152.01794631 194.19772015 -152.74356987 197.43724384 -153.421875 201.35595703 C-153.58022985 202.20524938 -153.73858469 203.05454172 -153.90173817 203.9295702 C-154.48656898 207.12439662 -155.04052611 210.32365778 -155.59057617 213.5246582 C-155.82409079 214.87409945 -156.05764236 216.22353431 -156.29122543 217.57296371 C-158.17774504 228.50526111 -160.00183408 239.44784051 -161.81916404 250.39181495 C-162.61605201 255.18715717 -163.41628949 259.98194064 -164.21601868 264.77680969 C-165.55546322 272.81079057 -166.89230923 280.84520046 -168.22753906 288.87988281 C-169.76809614 298.14992658 -171.31271978 307.41928583 -172.85950536 316.68829221 C-174.35466206 325.64843929 -175.84706142 334.6090435 -177.33817482 343.56986427 C-177.97004543 347.36682415 -178.60285246 351.16362617 -179.2364254 354.96030235 C-179.98151744 359.42606737 -180.72417925 363.89223005 -181.46500015 368.35870552 C-181.7362638 369.99182784 -182.00834198 371.62481511 -182.28131676 373.25765228 C-183.57460334 380.99660492 -184.84358238 388.70938351 -185.59057617 396.5246582 C-187.65043258 396.68751654 -189.71403308 396.8034431 -191.77807617 396.8996582 C-192.92663086 396.96926758 -194.07518555 397.03887695 -195.25854492 397.1105957 C-198.94352169 396.46259275 -200.27120104 395.45712631 -202.54656506 392.53245568 C-204.70482577 388.38178108 -204.32658095 383.79506492 -204.31970215 379.21603394 C-204.33738002 378.07189596 -204.3550579 376.92775799 -204.37327147 375.74894917 C-204.42602785 371.91217599 -204.44297498 368.07610085 -204.4597168 364.23901367 C-204.48675354 361.48910493 -204.52095135 358.73929317 -204.55441284 355.98945618 C-204.64829724 347.73686535 -204.69421957 339.48426879 -204.73471951 331.23127097 C-204.75485362 327.3406649 -204.78010473 323.45009241 -204.80479431 319.55951309 C-204.88501365 306.61976039 -204.95328729 293.68003326 -204.98566437 280.74006462 C-204.99419338 277.38505916 -205.00275382 274.0300538 -205.01147461 270.67504883 C-205.013631 269.84122681 -205.01578739 269.00740479 -205.01800913 268.14831544 C-205.05514964 254.64403204 -205.17393585 241.14177436 -205.32715684 227.63835905 C-205.48332828 213.76151173 -205.56767456 199.8856907 -205.58160925 186.00795853 C-205.59117214 178.22074673 -205.63166359 170.43643719 -205.75227356 162.65008163 C-205.85475565 156.01770205 -205.89171505 149.38895744 -205.84466833 142.75588422 C-205.82262652 139.37171255 -205.84104727 136.00101722 -205.92277145 132.61686516 C-206.37304577 112.85287532 -206.37304577 112.85287532 -201.71568871 107.2820344 C-197.20422551 103.43885099 -192.23918219 100.85711281 -186.82104111 98.52191758 C-183.84735067 97.19235591 -181.28670619 95.53396968 -178.59057617 93.7121582 C-177.75695557 93.18090332 -176.92333496 92.64964844 -176.06445312 92.10229492 C-175.24807373 91.5816748 -174.43169434 91.06105469 -173.59057617 90.5246582 C-164.38042541 84.6578125 -155.15358366 78.81792646 -145.91723633 72.99243164 C-141.97397374 70.50482465 -138.03234933 68.01462436 -134.09057617 65.5246582 C-129.37651754 62.54684949 -124.66217381 59.56949985 -119.94604492 56.5949707 C-111.48293203 51.25582566 -103.0305887 45.90025621 -94.59057617 40.5246582 C-85.38009231 34.65833294 -76.15358614 28.81792803 -66.91723633 22.99243164 C-63.76700935 21.00511111 -60.61781669 19.01615625 -57.46899414 17.02661133 C-55.89435589 16.03223907 -54.31916789 15.03873678 -52.7434082 14.04614258 C-48.61057639 11.44135176 -44.48968265 8.81980001 -40.38354492 6.1730957 C-39.10157227 5.35131836 -39.10157227 5.35131836 -37.79370117 4.51293945 C-36.16139702 3.46613571 -34.53228058 2.41433817 -32.90698242 1.35668945 C-21.86153017 -5.70547253 -11.57215794 -6.59038266 0 0 Z " fill="#FEDB00" transform="translate(271.590576171875,55.475341796875)"/>
<path d="M0 0 C10.69232643 5.85588609 16.57843861 20.63826608 20.484375 31.62890625 C21.1691596 34.77787787 21.07784761 37.78878622 21 41 C21.97839844 40.66226563 22.95679688 40.32453125 23.96484375 39.9765625 C27.96291689 38.60808765 31.97742514 37.29443566 36 36 C36.78117187 35.74347656 37.56234375 35.48695313 38.3671875 35.22265625 C50.25779227 31.9515461 64.89678212 32.80828847 76 38 C79.35010892 40.02648243 82.17189067 42.29943285 85 45 C85.63679687 45.59683594 86.27359375 46.19367188 86.9296875 46.80859375 C99.57212921 59.85798101 99.55964945 77.85630045 99.3046875 94.83984375 C98.46369584 121.21987562 88.31642338 149.00500133 71 169 C69.824375 170.5778125 69.824375 170.5778125 68.625 172.1875 C61.32731999 180.00644287 51.16639188 186.1740163 40.44140625 187.41015625 C32.24338908 187.61312115 25.22455318 186.68835202 18.25 182.25 C16.09179018 180.80116682 16.09179018 180.80116682 13.6875 181.0625 C10.63734524 182.12650747 7.89189122 183.51089837 5.0625 185.0625 C-2.62573428 188.55715195 -14.21626415 188.39110958 -22.125 185.625 C-42.92513501 175.76137525 -55.44551587 154.942876 -63 134 C-64.14164861 130.66292653 -65.21239516 127.30828608 -66.25 123.9375 C-66.49637207 123.14714355 -66.74274414 122.35678711 -66.99658203 121.54248047 C-72.98539543 101.28315663 -74.95595145 75.66512907 -65.6796875 56.234375 C-59.92731771 45.7355143 -52.07780266 39.41584134 -41 35 C-26.76389392 31.13021828 -9.23219539 34.32905912 4 40 C0.72485603 30.75423958 -2.71168263 21.7397192 -9.375 14.375 C-11.88051624 10.71309165 -11.55739559 8.3894903 -11 4 C-8.15970993 -0.54446411 -5.11245933 -0.86651853 0 0 Z " fill="#F24234" transform="translate(242,282)"/>
<path d="M0 0 C2.02466566 1.34972262 4.05072121 2.69736254 6.078125 4.04296875 C7.06490234 4.69958496 8.05167969 5.35620117 9.06835938 6.03271484 C12.9075674 8.55277954 16.81466195 10.94639332 20.75 13.3125 C30.19856757 19.01401713 39.46901015 24.98612311 48.75390625 30.94921875 C56.3415381 35.8216744 63.96654438 40.63395106 71.59667969 45.43945312 C75.52491631 47.91459579 79.44974565 50.39513168 83.375 52.875 C84.95831787 53.87502448 86.54165119 54.87502451 88.125 55.875 C91.29166667 57.875 94.45833333 59.875 97.625 61.875 C98.4085083 62.36983887 99.1920166 62.86467773 99.99926758 63.37451172 C101.58507325 64.37609035 103.17084791 65.37771808 104.7565918 66.37939453 C108.67684757 68.85564184 112.59761107 71.33107701 116.51953125 73.8046875 C125.92121046 79.73594821 135.30714608 85.69135529 144.68286133 91.66357422 C149.80334281 94.92406133 154.92829064 98.17718522 160.0625 101.41601562 C161.59436571 102.38248833 163.12562427 103.34992409 164.65625 104.31835938 C169.04221477 107.09292662 173.43830286 109.85020427 177.84375 112.59375 C179.85425398 113.85402738 181.86467213 115.1144417 183.875 116.375 C184.82568359 116.9628125 185.77636719 117.550625 186.75585938 118.15625 C187.64080078 118.713125 188.52574219 119.27 189.4375 119.84375 C190.22253906 120.33294922 191.00757813 120.82214844 191.81640625 121.32617188 C195.06685501 123.77171823 196.68896865 125.78206584 197.375 129.8125 C196.875 132.875 196.875 132.875 194.875 135.75 C191.78869103 137.93613552 190.03647256 138.50903428 186.28369141 138.39697266 C180.92685958 137.23612667 176.52450339 133.6653168 172.0625 130.625 C170.94969258 129.88640267 169.83557926 129.14976934 168.72021484 128.41503906 C166.48050756 126.93770256 164.24633067 125.45255767 162.01611328 123.9609375 C157.72223906 121.10947929 153.3685982 118.36000163 149 115.625 C147.46721274 114.65922732 145.93465863 113.69308449 144.40234375 112.7265625 C143.65581543 112.25637695 142.90928711 111.78619141 142.14013672 111.30175781 C130.43258959 103.92744165 118.74407151 96.5238735 107.07373047 89.09082031 C98.0227072 83.32804413 88.95081423 77.59862451 79.875 71.875 C68.92629406 64.97024412 57.99143589 58.04450614 47.07373047 51.09082031 C38.7962118 45.82053363 30.50159707 40.57766097 22.20166016 35.34277344 C19.05177626 33.35566935 15.90294301 31.36690479 12.75439453 29.37768555 C11.17636169 28.38109288 9.59791527 27.38515478 8.01904297 26.38989258 C3.93951495 23.81728191 -0.13178016 21.23282749 -4.19140625 18.62890625 C-5.44630859 17.82743164 -5.44630859 17.82743164 -6.7265625 17.00976562 C-8.30593396 16.00072275 -9.88297378 14.98801566 -11.45703125 13.97070312 C-24.59590581 5.59583538 -36.95615981 0.39281573 -52.83984375 3.38671875 C-62.33966699 6.38743333 -70.80578486 12.5350939 -79.125 17.875 C-79.83994629 18.33358398 -80.55489258 18.79216797 -81.29150391 19.26464844 C-84.800864 21.52165505 -88.30078527 23.79281849 -91.796875 26.0703125 C-96.27688932 28.98293328 -100.79106342 31.83973141 -105.3125 34.6875 C-112.26186092 39.06487579 -119.19833549 43.46179083 -126.125 47.875 C-136.8777838 54.72390091 -147.65505426 61.53346394 -158.43847656 68.33398438 C-167.67919528 74.16244612 -176.9100656 80.00584011 -186.125 85.875 C-195.33548386 91.74132526 -204.56199003 97.58173018 -213.79833984 103.40722656 C-218.53016638 106.39229909 -223.25981301 109.38082498 -227.98974609 112.36889648 C-232.00901551 114.90779721 -236.02911582 117.44536477 -240.05078125 119.98046875 C-240.86111816 120.4919043 -241.67145508 121.00333984 -242.50634766 121.53027344 C-244.11251266 122.54255417 -245.72023507 123.55236849 -247.32958984 124.55957031 C-250.97577268 126.84823718 -254.58191135 129.16608859 -258.11328125 131.62890625 C-267.9320388 138.42194395 -267.9320388 138.42194395 -273.25 138.75 C-277.125 137.875 -277.125 137.875 -279.6875 135.75 C-281.39023868 132.34452264 -281.82838515 130.62638748 -281.125 126.875 C-277.1170414 122.16584785 -272.18864331 119.10257949 -267 115.8125 C-266.11836182 115.24668213 -265.23672363 114.68086426 -264.32836914 114.09790039 C-261.59864047 112.3493847 -258.86286266 110.61074647 -256.125 108.875 C-254.89547607 108.09382813 -254.89547607 108.09382813 -253.64111328 107.296875 C-248.92956216 104.30553635 -244.20884153 101.32899821 -239.48388672 98.35888672 C-235.52732258 95.86996136 -231.57646588 93.37200827 -227.625 90.875 C-226.04169374 89.87495714 -224.45836041 88.87495713 -222.875 87.875 C-222.09125 87.38 -221.3075 86.885 -220.5 86.375 C-213.375 81.875 -213.375 81.875 -211.00073242 80.37548828 C-209.41492675 79.37390965 -207.82915209 78.37228192 -206.2434082 77.37060547 C-202.32315243 74.89435816 -198.40238893 72.41892299 -194.48046875 69.9453125 C-186.01735585 64.60616745 -177.56501252 59.25059801 -169.125 53.875 C-158.3720994 47.02628137 -147.59494669 40.21653666 -136.81152344 33.41601562 C-127.57080246 27.58755246 -118.34023237 21.7436945 -109.125 15.875 C-107.27086708 14.69525946 -105.41670063 13.51557161 -103.5625 12.3359375 C-100.88287675 10.63115585 -98.20390839 8.92540051 -95.52734375 7.21582031 C-90.07980413 3.7363833 -84.61385193 0.28887553 -79.125 -3.125 C-78.48095215 -3.53008789 -77.8369043 -3.93517578 -77.17333984 -4.35253906 C-50.8608989 -20.79173507 -25.07176383 -17.06823623 0 0 Z " fill="#FB9500" transform="translate(298.125,32.125)"/>
<path d="M0 0 C10.69232643 5.85588609 16.57843861 20.63826608 20.484375 31.62890625 C21.1691596 34.77787787 21.07784761 37.78878622 21 41 C21.97839844 40.66226563 22.95679688 40.32453125 23.96484375 39.9765625 C27.96291689 38.60808765 31.97742514 37.29443566 36 36 C36.78117187 35.74347656 37.56234375 35.48695313 38.3671875 35.22265625 C50.25779227 31.9515461 64.89678212 32.80828847 76 38 C79.35010892 40.02648243 82.17189067 42.29943285 85 45 C85.63679687 45.59683594 86.27359375 46.19367188 86.9296875 46.80859375 C99.57212921 59.85798101 99.55964945 77.85630045 99.3046875 94.83984375 C98.46369584 121.21987562 88.31642338 149.00500133 71 169 C69.824375 170.5778125 69.824375 170.5778125 68.625 172.1875 C61.32731999 180.00644287 51.16639188 186.1740163 40.44140625 187.41015625 C32.24338908 187.61312115 25.22455318 186.68835202 18.25 182.25 C16.09179018 180.80116682 16.09179018 180.80116682 13.6875 181.0625 C10.63734524 182.12650747 7.89189122 183.51089837 5.0625 185.0625 C-2.62573428 188.55715195 -14.21626415 188.39110958 -22.125 185.625 C-42.92513501 175.76137525 -55.44551587 154.942876 -63 134 C-64.14164861 130.66292653 -65.21239516 127.30828608 -66.25 123.9375 C-66.49637207 123.14714355 -66.74274414 122.35678711 -66.99658203 121.54248047 C-72.98539543 101.28315663 -74.95595145 75.66512907 -65.6796875 56.234375 C-59.92731771 45.7355143 -52.07780266 39.41584134 -41 35 C-26.76389392 31.13021828 -9.23219539 34.32905912 4 40 C0.72485603 30.75423958 -2.71168263 21.7397192 -9.375 14.375 C-11.88051624 10.71309165 -11.55739559 8.3894903 -11 4 C-8.15970993 -0.54446411 -5.11245933 -0.86651853 0 0 Z M-46.8125 58.6875 C-50.17387204 62.7839329 -51.75333587 66.89826677 -53 72 C-53.17128418 72.60263672 -53.34256836 73.20527344 -53.51904297 73.82617188 C-58.83197001 97.83952334 -50.07846317 128.92612445 -37.15380859 149.32421875 C-31.14207092 158.05561261 -23.52223216 165.23888392 -14 170 C-6.76197821 170.76655221 -1.50813358 169.20278155 4.6875 165.3125 C9.81841514 163.27949589 14.56333666 163.13201786 20 164 C22.94767209 165.36686408 25.63157352 166.9660102 28.40625 168.65234375 C33.55668995 171.32840065 38.51184664 170.62508817 43.9375 169.0625 C58.52450544 162.87319291 67.05367381 146.79482865 73 133 C80.75513651 113.56665299 87.5638105 86.28851244 79 66 C75.91877914 58.87895624 71.05750414 54.57431064 63.90258789 51.62402344 C51.49994332 47.55612154 37.80957933 52.89359186 26.1640625 57 C13.16196789 61.37610951 2.85956277 58.36983186 -9.49609375 53.62890625 C-22.38383476 48.78605503 -36.90073557 48.40635305 -46.8125 58.6875 Z " fill="#010102" transform="translate(242,282)"/>
<path d="M0 0 C1.299375 -0.061875 2.59875 -0.12375 3.9375 -0.1875 C4.66839844 -0.22230469 5.39929688 -0.25710937 6.15234375 -0.29296875 C15.01775116 0.6191102 21.71506075 5.08583229 28.9375 10 C30.9895094 11.36795178 33.04290851 12.73382108 35.09765625 14.09765625 C36.10328613 14.76684082 37.10891602 15.43602539 38.14501953 16.12548828 C42.00025389 18.65674272 45.92257281 21.06192657 49.875 23.4375 C59.3236552 29.13886519 68.59401564 35.11112663 77.87890625 41.07421875 C83.19663464 44.48903858 88.52921769 47.87929634 93.875 51.25 C94.6376416 51.73090088 95.4002832 52.21180176 96.18603516 52.70727539 C97.70216533 53.66282914 99.2184398 54.61815397 100.73486328 55.57324219 C112.44241041 62.94755835 124.13092849 70.3511265 135.80126953 77.78417969 C144.06712985 83.04704352 152.34997246 88.28268204 160.63818359 93.51025391 C164.75952231 96.10984134 168.87980904 98.71109399 173 101.3125 C173.74080811 101.77994629 174.48161621 102.24739258 175.24487305 102.72900391 C176.66956904 103.62846123 178.08820775 104.53761153 179.49951553 105.45793349 C182.0078026 107.05463507 182.0078026 107.05463507 184.80411911 108.40994018 C192.3732793 112.47029356 192.3732793 112.47029356 194.01566315 116.47904122 C194.40456502 119.52324717 194.43862871 122.40108475 194.35644531 125.46925354 C194.36937181 126.61847933 194.38229832 127.76770512 194.39561653 128.95175594 C194.42543541 132.80106606 194.37667042 136.64532463 194.328125 140.49438477 C194.32711488 143.25418438 194.34261616 146.01383549 194.35733032 148.77359009 C194.38309964 155.48959047 194.35030055 162.20408602 194.29764116 168.91987986 C194.23849995 176.74180587 194.23742762 184.56341764 194.23871589 192.38552772 C194.23903007 206.34221749 194.18660628 220.2982118 194.10449219 234.25463867 C194.02487158 247.7951114 193.98238421 261.33502188 193.98144531 274.87573242 C193.98138237 275.7098467 193.98131943 276.54396097 193.98125458 277.40335143 C193.98119667 278.23602882 193.98113876 279.06870621 193.9810791 279.92661625 C193.97978836 295.34619306 193.94564914 310.76553892 193.89500904 326.18502833 C193.8777819 331.63652908 193.86993911 337.08799831 193.86486816 342.53952217 C193.85796815 349.18296434 193.83191257 355.82603158 193.78215206 362.46929545 C193.75709688 365.85847641 193.73981966 369.24720209 193.74406815 372.63648415 C193.74428227 376.31081406 193.71381612 379.98363172 193.67529297 383.6577301 C193.68235386 384.72883469 193.68941475 385.79993927 193.69668961 386.90350157 C193.62465216 391.14883381 193.53405339 395.01593785 191.27029419 398.70889187 C188 401 188 401 175 401 C175.495 256.46 175.495 256.46 176 109 C174.35 108.34 172.7 107.68 171 107 C169.65296672 106.23732461 168.32669094 105.4368486 167.0234375 104.6015625 C166.28029297 104.12847656 165.53714844 103.65539062 164.77148438 103.16796875 C163.98064453 102.65878906 163.18980469 102.14960938 162.375 101.625 C160.6641327 100.5337441 158.9531932 99.44260139 157.2421875 98.3515625 C156.37045898 97.7937207 155.49873047 97.23587891 154.60058594 96.66113281 C150.57726623 94.09122413 146.53834876 91.54619886 142.5 89 C140.91268304 87.99751833 139.32544363 86.99491387 137.73828125 85.9921875 C134.61132514 84.01720022 131.48367617 82.04331714 128.35546875 80.0703125 C118.95602182 74.14046007 109.5725154 68.186155 100.19873047 62.21582031 C91.9212118 56.94553363 83.62659707 51.70266097 75.32666016 46.46777344 C70.58898968 43.47901427 65.85355675 40.48671078 61.11767578 37.49511719 C57.19764894 35.01905673 53.27714081 32.5437665 49.35546875 30.0703125 C39.74212175 24.00545558 30.14358562 17.91786983 20.55932617 11.80712891 C18.84207569 10.71281354 17.12393661 9.61989099 15.40478516 8.52856445 C13.82851792 7.52663459 12.2551556 6.5201166 10.68505859 5.50854492 C9.97816895 5.05713135 9.2712793 4.60571777 8.54296875 4.140625 C7.92832764 3.74520508 7.31368652 3.34978516 6.68041992 2.94238281 C4.51520823 1.72812782 2.46264646 1.23087311 0 1 C0 0.67 0 0.34 0 0 Z " fill="#F9BD07" transform="translate(251,51)"/>
<path d="M0 0 C28.38 0 56.76 0 86 0 C86 19.8 86 39.6 86 60 C57.62 60 29.24 60 0 60 C0 40.2 0 20.4 0 0 Z " fill="#FBD900" transform="translate(213,179)"/>
<path d="M0 0 C5.61 0 11.22 0 17 0 C19.58736302 13.28273247 21.98662922 26.57551456 24.125 39.9375 C24.4162215 41.74174482 24.7077364 43.54594231 24.99951172 45.35009766 C26.00372719 51.56608192 27.00190775 57.7830301 28 64 C29.38088982 72.59666319 30.76267939 81.19318042 32.14634514 89.78939724 C32.88632954 94.38782029 33.62344454 98.98669766 34.35986328 103.58569336 C36.57822256 117.40449007 38.86209388 131.20847624 41.29446411 144.99142456 C42.49806206 151.86404821 43.54903998 158.74359846 44.51559448 165.65338135 C45.22644423 170.56443819 46.07802632 175.44659138 46.9453125 180.33203125 C47.30371106 182.38731303 47.66177433 184.44265331 48.01953125 186.49804688 C48.5735353 189.66916606 49.129844 192.83981789 49.69189453 196.00952148 C50.24157581 199.1158654 50.78165808 202.22375887 51.3203125 205.33203125 C51.48902863 206.26972855 51.65774475 207.20742584 51.83157349 208.17353821 C53.27306321 216.56780993 54.46855283 224.36021613 50 232 C46.34162288 235.83135004 43.03533825 238.88049849 37.51953125 239.09765625 C36.62621094 239.08605469 35.73289062 239.07445312 34.8125 239.0625 C33.91144531 239.05347656 33.01039063 239.04445313 32.08203125 239.03515625 C31.05142578 239.01775391 31.05142578 239.01775391 30 239 C30.3609375 238.27296875 30.721875 237.5459375 31.09375 236.796875 C31.5578125 235.79140625 32.021875 234.7859375 32.5 233.75 C32.9640625 232.77546875 33.428125 231.8009375 33.90625 230.796875 C36.70327329 221.08720845 34.58000126 210.8687365 32.83984375 201.12109375 C32.61163457 199.79998351 32.38436881 198.47871001 32.15797424 197.1572876 C31.67765871 194.36421561 31.19141593 191.57227196 30.70019531 188.78109741 C29.92375535 184.3679827 29.1616807 179.95246252 28.40234375 175.53637695 C28.14660309 174.04990683 27.89083532 172.56344136 27.63504028 171.07698059 C27.44588232 169.97773726 27.44588232 169.97773726 27.25290298 168.856287 C26.87176272 166.64450706 26.48931461 164.43295728 26.10641479 162.22148132 C24.17338498 151.05368304 22.30501536 139.87669851 20.5 128.6875 C20.23572177 127.05524993 19.97139821 125.42300719 19.70703125 123.79077148 C18.97813632 119.28482365 18.25207019 114.77842363 17.52667236 110.27191162 C15.62124143 98.43456821 13.71285017 86.59770303 11.80237198 74.76117325 C11.43977574 72.51410315 11.07745288 70.26698911 10.71517944 68.01986694 C7.77293428 49.77449814 4.8073767 31.53442631 1.57397461 13.33789062 C1.3600708 12.12294922 1.14616699 10.90800781 0.92578125 9.65625 C0.74442627 8.64369141 0.56307129 7.63113281 0.3762207 6.58789062 C0 4 0 4 0 0 Z " fill="#0275B9" transform="translate(360,256)"/>
<path d="M0 0 C1.61100082 -0.04030334 1.61100082 -0.04030334 3.25454712 -0.0814209 C6.80115032 -0.1573382 10.34472499 -0.17303522 13.89208984 -0.18164062 C16.36584707 -0.20735973 18.83959214 -0.23427372 21.31332397 -0.2623291 C26.50018486 -0.31022263 31.68598049 -0.3250534 36.87304688 -0.3203125 C43.49965785 -0.31950084 50.11938304 -0.42854164 56.74436378 -0.56649017 C61.85613909 -0.6557634 66.966272 -0.67165732 72.0787468 -0.66743469 C74.51964365 -0.67683599 76.96058963 -0.71200772 79.40071487 -0.77409363 C97.99274584 -1.20273411 97.99274584 -1.20273411 103.47582245 2.80514526 C106.88258914 6.23582993 113.22802734 13.04196714 113.22802734 18.16210938 C68.34802734 18.16210938 23.46802734 18.16210938 -22.77197266 18.16210938 C-20.79197266 15.19210938 -18.81197266 12.22210938 -16.77197266 9.16210938 C-15.43460556 6.93962463 -15.43460556 6.93962463 -14.07022095 4.67224121 C-10.26630396 -0.28035199 -5.8978686 -0.021237 0 0 Z " fill="#0276BA" transform="translate(210.77197265625,143.837890625)"/>
<path d="M0 0 C7.84434218 -0.72632798 13.76785638 1.50426711 19.86328125 6.5390625 C24.14721898 11.02497248 25.61724747 16.06112764 27 22 C27.17200928 22.61689697 27.34401855 23.23379395 27.52124023 23.86938477 C32.70395512 46.9339196 23.57669159 76.26107931 12.15625 96.22265625 C6.3168044 105.3873417 -1.07569738 115.23291644 -11.90234375 118.58984375 C-14.23576118 119.04609856 -16.37434328 119.09743613 -18.75 119.0625 C-19.54921875 119.05347656 -20.3484375 119.04445313 -21.171875 119.03515625 C-21.77515625 119.02355469 -22.3784375 119.01195312 -23 119 C-22.25492187 118.4328125 -21.50984375 117.865625 -20.7421875 117.28125 C-3.03416347 102.54978841 6.4784529 74.79142953 9.72265625 52.421875 C11.28206076 33.1818982 9.98606979 16.76233143 0 0 Z " fill="#C61D1D" transform="translate(296,333)"/>
<path d="M0 0 C16.0025633 3.59112641 28.6458445 12.43208455 42.23095703 21.21582031 C46.30260233 23.83930681 50.40034732 26.42058988 54.5 29 C61.34461538 33.31569568 68.1753629 37.65278746 75 42 C84.21045128 47.86637613 93.43699028 53.70673033 102.67333984 59.53222656 C106.61660245 62.01983357 110.55820768 64.51006414 114.5 67 C116.0833256 68.00001224 117.66665893 69.00001225 119.25 70 C122.41666667 72 125.58333333 74 128.75 76 C129.5335083 76.49483887 130.3170166 76.98967773 131.12426758 77.49951172 C132.71007325 78.50109035 134.29584791 79.50271808 135.8815918 80.50439453 C139.80184757 82.98064184 143.72261107 85.45607701 147.64453125 87.9296875 C157.04621046 93.86094821 166.43214608 99.81635529 175.80786133 105.78857422 C180.92834281 109.04906133 186.05329064 112.30218522 191.1875 115.54101562 C192.71936571 116.50748833 194.25062427 117.47492409 195.78125 118.44335938 C200.16721477 121.21792662 204.56330286 123.97520427 208.96875 126.71875 C210.97925398 127.97902738 212.98967213 129.2394417 215 130.5 C215.95068359 131.0878125 216.90136719 131.675625 217.88085938 132.28125 C218.76580078 132.838125 219.65074219 133.395 220.5625 133.96875 C221.34753906 134.45794922 222.13257813 134.94714844 222.94140625 135.45117188 C226.19185501 137.89671823 227.81396865 139.90706584 228.5 143.9375 C228 147 228 147 226 149.875 C222.83932702 152.11381002 220.87660707 152.66921218 217.00390625 152.44140625 C213.69830354 151.71327154 211.62580412 150.1006433 209 148 C209.66 147.67 210.32 147.34 211 147 C210.74175999 145.43536936 210.46776681 143.8733355 210.1875 142.3125 C210.03667969 141.44238281 209.88585937 140.57226562 209.73046875 139.67578125 C208.3565996 134.64315898 206.0821225 131.65712996 201.66796875 128.94140625 C200.79825439 128.39790527 199.92854004 127.8544043 199.0324707 127.29443359 C198.09363037 126.72289551 197.15479004 126.15135742 196.1875 125.5625 C194.18470176 124.3167182 192.18210315 123.07061542 190.1796875 121.82421875 C189.15327148 121.1904834 188.12685547 120.55674805 187.06933594 119.90380859 C182.2887098 116.93854272 177.55236477 113.90481742 172.8125 110.875 C163.66499116 105.04966845 154.49945328 99.25318372 145.32666016 93.46777344 C141.38339755 90.98016643 137.44179232 88.48993586 133.5 86 C131.9166744 84.99998776 130.33334107 83.99998775 128.75 83 C125.58333333 81 122.41666667 79 119.25 77 C118.4664917 76.50516113 117.6829834 76.01032227 116.87573242 75.50048828 C115.28992675 74.49890965 113.70415209 73.49728192 112.1184082 72.49560547 C108.19815243 70.01935816 104.27738893 67.54392299 100.35546875 65.0703125 C90.95602182 59.14046007 81.5725154 53.186155 72.19873047 47.21582031 C63.9212118 41.94553363 55.62659707 36.70266097 47.32666016 31.46777344 C44.97122111 29.98184484 42.61635986 28.49500518 40.26171875 27.0078125 C39.47531006 26.51112061 38.68890137 26.01442871 37.87866211 25.50268555 C36.30251304 24.50697606 34.72650217 23.51104777 33.15063477 22.51489258 C29.04710866 19.92151175 24.94025444 17.33362736 20.828125 14.75390625 C19.97798828 14.21958984 19.12785156 13.68527344 18.25195312 13.13476562 C16.63715983 12.12000481 15.02134672 11.10686419 13.40429688 10.09570312 C8.81864375 7.21111468 4.33545127 4.25158845 0 1 C0 0.67 0 0.34 0 0 Z " fill="#EF7900" transform="translate(267,18)"/>
<path d="M0 0 C11.22 0 22.44 0 34 0 C34 17.82 34 35.64 34 54 C28.95884549 51.47942275 24.45723176 49.1513722 19.78515625 46.14453125 C18.68751953 45.44005859 17.58988281 44.73558594 16.45898438 44.00976562 C15.90170654 43.64923096 15.34442871 43.28869629 14.77026367 42.91723633 C13.04417443 41.80064536 11.3144255 40.68991028 9.58398438 39.58007812 C1.15608129 34.15608129 1.15608129 34.15608129 0 33 C-0.0884283 30.55196233 -0.11535972 28.13155206 -0.09765625 25.68359375 C-0.09664917 25.03588013 -0.09564209 24.3881665 -0.09460449 23.7208252 C-0.08935843 21.29303221 -0.07539725 18.86526439 -0.0625 16.4375 C-0.041875 11.013125 -0.02125 5.58875 0 0 Z " fill="#D64214" transform="translate(384,34)"/>
<path d="M0 0 C5.61 0 11.22 0 17 0 C17 19.8 17 39.6 17 60 C11.39 60 5.78 60 0 60 C0 40.2 0 20.4 0 0 Z " fill="#3D4FB2" transform="translate(316,179)"/>
<path d="M0 0 C5.61 0 11.22 0 17 0 C17 19.8 17 39.6 17 60 C11.39 60 5.78 60 0 60 C0 40.2 0 20.4 0 0 Z " fill="#3D4FB2" transform="translate(179,179)"/>
<path d="M0 0 C2.63002537 2.09975868 3.88320374 3.22177189 4.390625 6.6027832 C4.32101563 8.06204224 4.32101563 8.06204224 4.25 9.55078125 C4.21648437 10.63504395 4.18296875 11.71930664 4.1484375 12.83642578 C4.09945312 13.98353027 4.05046875 15.13063477 4 16.3125 C3.77576204 25.56613815 4.30190553 33.2690031 7.08984375 42.0625 C8.33460277 46.07991966 8.69256409 48.84461546 8 53 C5.55871269 56.44652326 4.17033126 57.78056289 0 58.5625 C-3.75520659 57.85839877 -5.25289618 56.63757018 -8 54 C-9.29296875 51.08203125 -9.29296875 51.08203125 -10.1875 47.8125 C-10.64189453 46.21341797 -10.64189453 46.21341797 -11.10546875 44.58203125 C-11.40066406 43.39996094 -11.69585937 42.21789062 -12 41 C-12.18095215 40.32646484 -12.3619043 39.65292969 -12.54833984 38.95898438 C-14.06968045 32.89525879 -14.30116228 27.10827065 -14.25 20.875 C-14.25773438 19.92496094 -14.26546875 18.97492188 -14.2734375 17.99609375 C-14.23924548 5.66986961 -14.23924548 5.66986961 -10.375 1.0625 C-6.98861918 -0.45245984 -3.62878065 -0.9001077 0 0 Z " fill="#040100" transform="translate(219,350)"/>
<path d="M0 0 C5.61 0 11.22 0 17 0 C17 14.19 17 28.38 17 43 C4.64 38.056 4.64 38.056 0 33 C-1.48695876 27.26159575 -1.14667067 21.86897956 -0.75 16 C-0.68972643 14.4468213 -0.63498739 12.8934174 -0.5859375 11.33984375 C-0.4645904 7.54976924 -0.23054501 3.79118463 0 0 Z " fill="#FD5621" transform="translate(384,34)"/>
</svg>
